<?xml version="1.0" encoding="UTF-8"?>
<!-- SPDX-FileCopyrightText: 2026 plasma-deepin-theme contributors -->
<!-- SPDX-License-Identifier: GPL-3.0-or-later -->
<!-- Generated by tools/gen-plasma-style.py -->
<svg xmlns="http://www.w3.org/2000/svg" xmlns:xlink="http://www.w3.org/1999/xlink" version="1.1" width="172" height="92" viewBox="0 0 172 92">
<defs><style type="text/css" id="current-color-scheme">
  .ColorScheme-Text { color:#232629; }
  .ColorScheme-Background { color:#eff0f1; }
  .ColorScheme-Highlight { color:#0081ff; }
  .ColorScheme-NegativeText { color:#ff5736; }
  .ColorScheme-NeutralText { color:#ff9b00; }
</style><linearGradient id="xsh-lin" x1="0" y1="0" x2="0" y2="1"><stop offset="0" style="stop-color:#000;stop-opacity:0.25"/><stop offset="0.25" style="stop-color:#000;stop-opacity:0.1375"/><stop offset="0.5" style="stop-color:#000;stop-opacity:0.055"/><stop offset="0.75" style="stop-color:#000;stop-opacity:0.015"/><stop offset="1" style="stop-color:#000;stop-opacity:0"/></linearGradient><radialGradient id="xsh-rad" gradientUnits="userSpaceOnUse" cx="30" cy="30" r="30"><stop offset="0.5333" style="stop-color:#000;stop-opacity:0.25"/><stop offset="0.65" style="stop-color:#000;stop-opacity:0.1375"/><stop offset="0.7667" style="stop-color:#000;stop-opacity:0.055"/><stop offset="0.8833" style="stop-color:#000;stop-opacity:0.015"/><stop offset="1" style="stop-color:#000;stop-opacity:0"/></radialGradient><linearGradient id="xsh-up" href="#xsh-lin" xlink:href="#xsh-lin" x1="0" y1="1" x2="0" y2="0"/><linearGradient id="xsh-h" href="#xsh-lin" xlink:href="#xsh-lin" x1="0" y1="0" x2="1" y2="0"/><linearGradient id="xsh-hl" href="#xsh-lin" xlink:href="#xsh-lin" x1="1" y1="0" x2="0" y2="0"/></defs>
<g id="shadow-topleft" transform="translate(0,0)"><path style="fill:url(#xsh-rad)" d="M0,0 H30 V14 A16,16 0 0 0 14,30 H0 Z"/></g>
<g id="shadow-topright" transform="translate(92,0) scale(-1,1)"><path style="fill:url(#xsh-rad)" d="M0,0 H30 V14 A16,16 0 0 0 14,30 H0 Z"/></g>
<g id="shadow-bottomleft" transform="translate(0,92) scale(1,-1)"><path style="fill:url(#xsh-rad)" d="M0,0 H30 V14 A16,16 0 0 0 14,30 H0 Z"/></g>
<g id="shadow-bottomright" transform="translate(92,92) scale(-1,-1)"><path style="fill:url(#xsh-rad)" d="M0,0 H30 V14 A16,16 0 0 0 14,30 H0 Z"/></g>
<g id="shadow-top" transform="translate(30,0)"><rect width="32" height="14" style="fill:url(#xsh-up)"/><rect y="14" width="32" height="16" style="fill:#000;opacity:0.001"/></g>
<g id="shadow-bottom" transform="translate(30,62)"><rect width="32" height="16" style="fill:#000;opacity:0.001"/><rect y="16" width="32" height="14" style="fill:url(#xsh-lin)"/></g>
<g id="shadow-left" transform="translate(0,30)"><rect width="14" height="32" style="fill:url(#xsh-hl)"/><rect x="14" width="16" height="32" style="fill:#000;opacity:0.001"/></g>
<g id="shadow-right" transform="translate(62,30)"><rect width="16" height="32" style="fill:#000;opacity:0.001"/><rect x="16" width="14" height="32" style="fill:url(#xsh-h)"/></g>
<g id="shadow-center" transform="translate(30,30)"><rect width="32" height="32" style="fill:#000;opacity:0.001"/></g>
<rect id="shadow-hint-top-margin" x="30" y="0" width="2" height="14" style="opacity:0"/>
<rect id="shadow-hint-bottom-margin" x="30" y="78" width="2" height="14" style="opacity:0"/>
<rect id="shadow-hint-left-margin" x="0" y="30" width="14" height="2" style="opacity:0"/>
<rect id="shadow-hint-right-margin" x="78" y="30" width="14" height="2" style="opacity:0"/>
<g id="topleft" transform="translate(14,14)"><path class="ColorScheme-Background" style="fill:currentColor;opacity:1" d="M0,16 A16,16 0 0 1 16,0 L16,16 Z"/><path class="ColorScheme-Text" style="fill:currentColor;opacity:0.1" d="M0,16 A16,16 0 0 1 16,0 V1 A15,15 0 0 0 1,16 Z"/></g>
<g id="topright" transform="translate(62,14)"><path class="ColorScheme-Background" style="fill:currentColor;opacity:1" d="M0,0 A16,16 0 0 1 16,16 L0,16 Z"/><path class="ColorScheme-Text" style="fill:currentColor;opacity:0.1" d="M0,0 A16,16 0 0 1 16,16 H15 A15,15 0 0 0 0,1 Z"/></g>
<g id="bottomleft" transform="translate(14,62)"><path class="ColorScheme-Background" style="fill:currentColor;opacity:1" d="M0,0 L16,0 L16,16 A16,16 0 0 1 0,0 Z"/><path class="ColorScheme-Text" style="fill:currentColor;opacity:0.1" d="M0,0 A16,16 0 0 0 16,16 V15 A15,15 0 0 1 1,0 Z"/></g>
<g id="bottomright" transform="translate(62,62)"><path class="ColorScheme-Background" style="fill:currentColor;opacity:1" d="M0,0 L16,0 A16,16 0 0 1 0,16 Z"/><path class="ColorScheme-Text" style="fill:currentColor;opacity:0.1" d="M16,0 A16,16 0 0 1 0,16 V15 A15,15 0 0 0 15,0 Z"/></g>
<g id="top" transform="translate(30,14)"><path class="ColorScheme-Background" style="fill:currentColor;opacity:1" d="M0,0 H32 V16 H0 Z"/><path class="ColorScheme-Text" style="fill:currentColor;opacity:0.1" d="M0,0 H32 V1 H0 Z"/></g>
<g id="bottom" transform="translate(30,62)"><path class="ColorScheme-Background" style="fill:currentColor;opacity:1" d="M0,0 H32 V16 H0 Z"/><path class="ColorScheme-Text" style="fill:currentColor;opacity:0.1" d="M0,15 H32 V16 H0 Z"/></g>
<g id="left" transform="translate(14,30)"><path class="ColorScheme-Background" style="fill:currentColor;opacity:1" d="M0,0 H16 V32 H0 Z"/><path class="ColorScheme-Text" style="fill:currentColor;opacity:0.1" d="M0,0 H1 V32 H0 Z"/></g>
<g id="right" transform="translate(62,30)"><path class="ColorScheme-Background" style="fill:currentColor;opacity:1" d="M0,0 H16 V32 H0 Z"/><path class="ColorScheme-Text" style="fill:currentColor;opacity:0.1" d="M15,0 H16 V32 H15 Z"/></g>
<g id="center" transform="translate(30,30)"><path class="ColorScheme-Background" style="fill:currentColor;opacity:1" d="M0,0 H32 V32 H0 Z"/></g>
<rect id="hint-top-margin" x="30" y="14" width="4" height="6" style="fill:#ff00ff;opacity:0"/>
<rect id="hint-bottom-margin" x="30" y="72" width="4" height="6" style="fill:#ff00ff;opacity:0"/>
<rect id="hint-left-margin" x="14" y="30" width="6" height="4" style="fill:#ff00ff;opacity:0"/>
<rect id="hint-right-margin" x="72" y="30" width="6" height="4" style="fill:#ff00ff;opacity:0"/>
<path id="mask-topleft" d="M100,30 A16,16 0 0 1 116,14 L116,30 Z"/>
<path id="mask-topright" d="M148,14 A16,16 0 0 1 164,30 L148,30 Z"/>
<path id="mask-bottomleft" d="M100,62 L116,62 L116,78 A16,16 0 0 1 100,62 Z"/>
<path id="mask-bottomright" d="M148,62 L164,62 A16,16 0 0 1 148,78 Z"/>
<rect id="mask-top" x="116" y="14" width="32" height="16"/>
<rect id="mask-bottom" x="116" y="62" width="32" height="16"/>
<rect id="mask-left" x="100" y="30" width="16" height="32"/>
<rect id="mask-right" x="148" y="30" width="16" height="32"/>
<rect id="mask-center" x="116" y="30" width="32" height="32"/>
</svg>
