<?xml version="1.0" encoding="UTF-8"?>
<!-- SPDX-FileCopyrightText: 2026 plasma-deepin-theme contributors -->
<!-- SPDX-License-Identifier: GPL-3.0-or-later -->
<!-- Generated by tools/gen-plasma-style.py -->
<svg xmlns="http://www.w3.org/2000/svg" xmlns:xlink="http://www.w3.org/1999/xlink" version="1.1" width="300" height="52" viewBox="0 0 300 52">
<defs><style type="text/css" id="current-color-scheme">
  .ColorScheme-Text { color:#232629; }
  .ColorScheme-Background { color:#eff0f1; }
  .ColorScheme-Highlight { color:#0081ff; }
  .ColorScheme-NegativeText { color:#ff5736; }
  .ColorScheme-NeutralText { color:#ff9b00; }
</style></defs>
<g id="normal-topleft" transform="translate(0,0)"><path class="ColorScheme-Background" style="fill:currentColor;opacity:0" d="M0,10 A10,10 0 0 1 10,0 L10,10 Z"/></g>
<g id="normal-topright" transform="translate(42,0)"><path class="ColorScheme-Background" style="fill:currentColor;opacity:0" d="M0,0 A10,10 0 0 1 10,10 L0,10 Z"/></g>
<g id="normal-bottomleft" transform="translate(0,42)"><path class="ColorScheme-Background" style="fill:currentColor;opacity:0" d="M0,0 L10,0 L10,10 A10,10 0 0 1 0,0 Z"/></g>
<g id="normal-bottomright" transform="translate(42,42)"><path class="ColorScheme-Background" style="fill:currentColor;opacity:0" d="M0,0 L10,0 A10,10 0 0 1 0,10 Z"/></g>
<g id="normal-top" transform="translate(10,0)"><path class="ColorScheme-Background" style="fill:currentColor;opacity:0" d="M0,0 H32 V10 H0 Z"/></g>
<g id="normal-bottom" transform="translate(10,42)"><path class="ColorScheme-Background" style="fill:currentColor;opacity:0" d="M0,0 H32 V10 H0 Z"/></g>
<g id="normal-left" transform="translate(0,10)"><path class="ColorScheme-Background" style="fill:currentColor;opacity:0" d="M0,0 H10 V32 H0 Z"/></g>
<g id="normal-right" transform="translate(42,10)"><path class="ColorScheme-Background" style="fill:currentColor;opacity:0" d="M0,0 H10 V32 H0 Z"/></g>
<g id="normal-center" transform="translate(10,10)"><path class="ColorScheme-Background" style="fill:currentColor;opacity:0" d="M0,0 H32 V32 H0 Z"/></g>
<rect id="normal-hint-top-margin" x="10" y="0" width="4" height="6" style="fill:#ff00ff;opacity:0"/>
<rect id="normal-hint-bottom-margin" x="10" y="46" width="4" height="6" style="fill:#ff00ff;opacity:0"/>
<rect id="normal-hint-left-margin" x="0" y="10" width="6" height="4" style="fill:#ff00ff;opacity:0"/>
<rect id="normal-hint-right-margin" x="46" y="10" width="6" height="4" style="fill:#ff00ff;opacity:0"/>
<g id="hover-topleft" transform="translate(60,0)"><path class="ColorScheme-Text" style="fill:currentColor;opacity:0.12" d="M0,10 A10,10 0 0 1 10,0 L10,10 Z"/><path class="ColorScheme-Text" style="fill:currentColor;opacity:0.08" d="M0,10 A10,10 0 0 1 10,0 V1 A9,9 0 0 0 1,10 Z"/></g>
<g id="hover-topright" transform="translate(102,0)"><path class="ColorScheme-Text" style="fill:currentColor;opacity:0.12" d="M0,0 A10,10 0 0 1 10,10 L0,10 Z"/><path class="ColorScheme-Text" style="fill:currentColor;opacity:0.08" d="M0,0 A10,10 0 0 1 10,10 H9 A9,9 0 0 0 0,1 Z"/></g>
<g id="hover-bottomleft" transform="translate(60,42)"><path class="ColorScheme-Text" style="fill:currentColor;opacity:0.12" d="M0,0 L10,0 L10,10 A10,10 0 0 1 0,0 Z"/><path class="ColorScheme-Text" style="fill:currentColor;opacity:0.08" d="M0,0 A10,10 0 0 0 10,10 V9 A9,9 0 0 1 1,0 Z"/></g>
<g id="hover-bottomright" transform="translate(102,42)"><path class="ColorScheme-Text" style="fill:currentColor;opacity:0.12" d="M0,0 L10,0 A10,10 0 0 1 0,10 Z"/><path class="ColorScheme-Text" style="fill:currentColor;opacity:0.08" d="M10,0 A10,10 0 0 1 0,10 V9 A9,9 0 0 0 9,0 Z"/></g>
<g id="hover-top" transform="translate(70,0)"><path class="ColorScheme-Text" style="fill:currentColor;opacity:0.12" d="M0,0 H32 V10 H0 Z"/><path class="ColorScheme-Text" style="fill:currentColor;opacity:0.08" d="M0,0 H32 V1 H0 Z"/></g>
<g id="hover-bottom" transform="translate(70,42)"><path class="ColorScheme-Text" style="fill:currentColor;opacity:0.12" d="M0,0 H32 V10 H0 Z"/><path class="ColorScheme-Text" style="fill:currentColor;opacity:0.08" d="M0,9 H32 V10 H0 Z"/></g>
<g id="hover-left" transform="translate(60,10)"><path class="ColorScheme-Text" style="fill:currentColor;opacity:0.12" d="M0,0 H10 V32 H0 Z"/><path class="ColorScheme-Text" style="fill:currentColor;opacity:0.08" d="M0,0 H1 V32 H0 Z"/></g>
<g id="hover-right" transform="translate(102,10)"><path class="ColorScheme-Text" style="fill:currentColor;opacity:0.12" d="M0,0 H10 V32 H0 Z"/><path class="ColorScheme-Text" style="fill:currentColor;opacity:0.08" d="M9,0 H10 V32 H9 Z"/></g>
<g id="hover-center" transform="translate(70,10)"><path class="ColorScheme-Text" style="fill:currentColor;opacity:0.12" d="M0,0 H32 V32 H0 Z"/></g>
<rect id="hover-hint-top-margin" x="70" y="0" width="4" height="6" style="fill:#ff00ff;opacity:0"/>
<rect id="hover-hint-bottom-margin" x="70" y="46" width="4" height="6" style="fill:#ff00ff;opacity:0"/>
<rect id="hover-hint-left-margin" x="60" y="10" width="6" height="4" style="fill:#ff00ff;opacity:0"/>
<rect id="hover-hint-right-margin" x="106" y="10" width="6" height="4" style="fill:#ff00ff;opacity:0"/>
<g id="focus-topleft" transform="translate(120,0)"><path class="ColorScheme-Text" style="fill:currentColor;opacity:0.18" d="M0,10 A10,10 0 0 1 10,0 L10,10 Z"/><path class="ColorScheme-Text" style="fill:currentColor;opacity:0.1" d="M0,10 A10,10 0 0 1 10,0 V1 A9,9 0 0 0 1,10 Z"/></g>
<g id="focus-topright" transform="translate(162,0)"><path class="ColorScheme-Text" style="fill:currentColor;opacity:0.18" d="M0,0 A10,10 0 0 1 10,10 L0,10 Z"/><path class="ColorScheme-Text" style="fill:currentColor;opacity:0.1" d="M0,0 A10,10 0 0 1 10,10 H9 A9,9 0 0 0 0,1 Z"/></g>
<g id="focus-bottomleft" transform="translate(120,42)"><path class="ColorScheme-Text" style="fill:currentColor;opacity:0.18" d="M0,0 L10,0 L10,10 A10,10 0 0 1 0,0 Z"/><path class="ColorScheme-Text" style="fill:currentColor;opacity:0.1" d="M0,0 A10,10 0 0 0 10,10 V9 A9,9 0 0 1 1,0 Z"/></g>
<g id="focus-bottomright" transform="translate(162,42)"><path class="ColorScheme-Text" style="fill:currentColor;opacity:0.18" d="M0,0 L10,0 A10,10 0 0 1 0,10 Z"/><path class="ColorScheme-Text" style="fill:currentColor;opacity:0.1" d="M10,0 A10,10 0 0 1 0,10 V9 A9,9 0 0 0 9,0 Z"/></g>
<g id="focus-top" transform="translate(130,0)"><path class="ColorScheme-Text" style="fill:currentColor;opacity:0.18" d="M0,0 H32 V10 H0 Z"/><path class="ColorScheme-Text" style="fill:currentColor;opacity:0.1" d="M0,0 H32 V1 H0 Z"/></g>
<g id="focus-bottom" transform="translate(130,42)"><path class="ColorScheme-Text" style="fill:currentColor;opacity:0.18" d="M0,0 H32 V10 H0 Z"/><path class="ColorScheme-Text" style="fill:currentColor;opacity:0.1" d="M0,9 H32 V10 H0 Z"/></g>
<g id="focus-left" transform="translate(120,10)"><path class="ColorScheme-Text" style="fill:currentColor;opacity:0.18" d="M0,0 H10 V32 H0 Z"/><path class="ColorScheme-Text" style="fill:currentColor;opacity:0.1" d="M0,0 H1 V32 H0 Z"/></g>
<g id="focus-right" transform="translate(162,10)"><path class="ColorScheme-Text" style="fill:currentColor;opacity:0.18" d="M0,0 H10 V32 H0 Z"/><path class="ColorScheme-Text" style="fill:currentColor;opacity:0.1" d="M9,0 H10 V32 H9 Z"/></g>
<g id="focus-center" transform="translate(130,10)"><path class="ColorScheme-Text" style="fill:currentColor;opacity:0.18" d="M0,0 H32 V32 H0 Z"/></g>
<rect id="focus-hint-top-margin" x="130" y="0" width="4" height="6" style="fill:#ff00ff;opacity:0"/>
<rect id="focus-hint-bottom-margin" x="130" y="46" width="4" height="6" style="fill:#ff00ff;opacity:0"/>
<rect id="focus-hint-left-margin" x="120" y="10" width="6" height="4" style="fill:#ff00ff;opacity:0"/>
<rect id="focus-hint-right-margin" x="166" y="10" width="6" height="4" style="fill:#ff00ff;opacity:0"/>
<g id="attention-topleft" transform="translate(180,0)"><path class="ColorScheme-NeutralText" style="fill:currentColor;opacity:0.35" d="M0,10 A10,10 0 0 1 10,0 L10,10 Z"/></g>
<g id="attention-topright" transform="translate(222,0)"><path class="ColorScheme-NeutralText" style="fill:currentColor;opacity:0.35" d="M0,0 A10,10 0 0 1 10,10 L0,10 Z"/></g>
<g id="attention-bottomleft" transform="translate(180,42)"><path class="ColorScheme-NeutralText" style="fill:currentColor;opacity:0.35" d="M0,0 L10,0 L10,10 A10,10 0 0 1 0,0 Z"/></g>
<g id="attention-bottomright" transform="translate(222,42)"><path class="ColorScheme-NeutralText" style="fill:currentColor;opacity:0.35" d="M0,0 L10,0 A10,10 0 0 1 0,10 Z"/></g>
<g id="attention-top" transform="translate(190,0)"><path class="ColorScheme-NeutralText" style="fill:currentColor;opacity:0.35" d="M0,0 H32 V10 H0 Z"/></g>
<g id="attention-bottom" transform="translate(190,42)"><path class="ColorScheme-NeutralText" style="fill:currentColor;opacity:0.35" d="M0,0 H32 V10 H0 Z"/></g>
<g id="attention-left" transform="translate(180,10)"><path class="ColorScheme-NeutralText" style="fill:currentColor;opacity:0.35" d="M0,0 H10 V32 H0 Z"/></g>
<g id="attention-right" transform="translate(222,10)"><path class="ColorScheme-NeutralText" style="fill:currentColor;opacity:0.35" d="M0,0 H10 V32 H0 Z"/></g>
<g id="attention-center" transform="translate(190,10)"><path class="ColorScheme-NeutralText" style="fill:currentColor;opacity:0.35" d="M0,0 H32 V32 H0 Z"/></g>
<rect id="attention-hint-top-margin" x="190" y="0" width="4" height="6" style="fill:#ff00ff;opacity:0"/>
<rect id="attention-hint-bottom-margin" x="190" y="46" width="4" height="6" style="fill:#ff00ff;opacity:0"/>
<rect id="attention-hint-left-margin" x="180" y="10" width="6" height="4" style="fill:#ff00ff;opacity:0"/>
<rect id="attention-hint-right-margin" x="226" y="10" width="6" height="4" style="fill:#ff00ff;opacity:0"/>
<g id="minimized-topleft" transform="translate(240,0)"><path class="ColorScheme-Background" style="fill:currentColor;opacity:0" d="M0,10 A10,10 0 0 1 10,0 L10,10 Z"/></g>
<g id="minimized-topright" transform="translate(282,0)"><path class="ColorScheme-Background" style="fill:currentColor;opacity:0" d="M0,0 A10,10 0 0 1 10,10 L0,10 Z"/></g>
<g id="minimized-bottomleft" transform="translate(240,42)"><path class="ColorScheme-Background" style="fill:currentColor;opacity:0" d="M0,0 L10,0 L10,10 A10,10 0 0 1 0,0 Z"/></g>
<g id="minimized-bottomright" transform="translate(282,42)"><path class="ColorScheme-Background" style="fill:currentColor;opacity:0" d="M0,0 L10,0 A10,10 0 0 1 0,10 Z"/></g>
<g id="minimized-top" transform="translate(250,0)"><path class="ColorScheme-Background" style="fill:currentColor;opacity:0" d="M0,0 H32 V10 H0 Z"/></g>
<g id="minimized-bottom" transform="translate(250,42)"><path class="ColorScheme-Background" style="fill:currentColor;opacity:0" d="M0,0 H32 V10 H0 Z"/></g>
<g id="minimized-left" transform="translate(240,10)"><path class="ColorScheme-Background" style="fill:currentColor;opacity:0" d="M0,0 H10 V32 H0 Z"/></g>
<g id="minimized-right" transform="translate(282,10)"><path class="ColorScheme-Background" style="fill:currentColor;opacity:0" d="M0,0 H10 V32 H0 Z"/></g>
<g id="minimized-center" transform="translate(250,10)"><path class="ColorScheme-Background" style="fill:currentColor;opacity:0" d="M0,0 H32 V32 H0 Z"/></g>
<rect id="minimized-hint-top-margin" x="250" y="0" width="4" height="6" style="fill:#ff00ff;opacity:0"/>
<rect id="minimized-hint-bottom-margin" x="250" y="46" width="4" height="6" style="fill:#ff00ff;opacity:0"/>
<rect id="minimized-hint-left-margin" x="240" y="10" width="6" height="4" style="fill:#ff00ff;opacity:0"/>
<rect id="minimized-hint-right-margin" x="286" y="10" width="6" height="4" style="fill:#ff00ff;opacity:0"/>
</svg>
