<?xml version="1.0" encoding="UTF-8"?>
<!-- SPDX-FileCopyrightText: 2026 plasma-deepin-theme contributors -->
<!-- SPDX-License-Identifier: GPL-3.0-or-later -->
<!-- Generated by tools/gen-plasma-style.py -->
<svg xmlns="http://www.w3.org/2000/svg" xmlns:xlink="http://www.w3.org/1999/xlink" version="1.1" width="132" height="68" viewBox="0 0 132 68">
<defs><style type="text/css" id="current-color-scheme">
  .ColorScheme-Text { color:#232629; }
  .ColorScheme-Background { color:#eff0f1; }
  .ColorScheme-Highlight { color:#0081ff; }
  .ColorScheme-NegativeText { color:#ff5736; }
  .ColorScheme-NeutralText { color:#ff9b00; }
</style><linearGradient id="xsh-lin" x1="0" y1="0" x2="0" y2="1"><stop offset="0" style="stop-color:#000;stop-opacity:0.176"/><stop offset="0.25" style="stop-color:#000;stop-opacity:0.0968"/><stop offset="0.5" style="stop-color:#000;stop-opacity:0.0387"/><stop offset="0.75" style="stop-color:#000;stop-opacity:0.0106"/><stop offset="1" style="stop-color:#000;stop-opacity:0"/></linearGradient><radialGradient id="xsh-rad" gradientUnits="userSpaceOnUse" cx="18" cy="18" r="18"><stop offset="0.4444" style="stop-color:#000;stop-opacity:0.176"/><stop offset="0.5833" style="stop-color:#000;stop-opacity:0.0968"/><stop offset="0.7222" style="stop-color:#000;stop-opacity:0.0387"/><stop offset="0.8611" style="stop-color:#000;stop-opacity:0.0106"/><stop offset="1" style="stop-color:#000;stop-opacity:0"/></radialGradient><linearGradient id="xsh-up" href="#xsh-lin" xlink:href="#xsh-lin" x1="0" y1="1" x2="0" y2="0"/><linearGradient id="xsh-h" href="#xsh-lin" xlink:href="#xsh-lin" x1="0" y1="0" x2="1" y2="0"/><linearGradient id="xsh-hl" href="#xsh-lin" xlink:href="#xsh-lin" x1="1" y1="0" x2="0" y2="0"/></defs>
<g id="shadow-topleft" transform="translate(0,0)"><path style="fill:url(#xsh-rad)" d="M0,0 H18 V10 A8,8 0 0 0 10,18 H0 Z"/></g>
<g id="shadow-topright" transform="translate(68,0) scale(-1,1)"><path style="fill:url(#xsh-rad)" d="M0,0 H18 V10 A8,8 0 0 0 10,18 H0 Z"/></g>
<g id="shadow-bottomleft" transform="translate(0,68) scale(1,-1)"><path style="fill:url(#xsh-rad)" d="M0,0 H18 V10 A8,8 0 0 0 10,18 H0 Z"/></g>
<g id="shadow-bottomright" transform="translate(68,68) scale(-1,-1)"><path style="fill:url(#xsh-rad)" d="M0,0 H18 V10 A8,8 0 0 0 10,18 H0 Z"/></g>
<g id="shadow-top" transform="translate(18,0)"><rect width="32" height="10" style="fill:url(#xsh-up)"/><rect y="10" width="32" height="8" style="fill:#000;opacity:0.001"/></g>
<g id="shadow-bottom" transform="translate(18,50)"><rect width="32" height="8" style="fill:#000;opacity:0.001"/><rect y="8" width="32" height="10" style="fill:url(#xsh-lin)"/></g>
<g id="shadow-left" transform="translate(0,18)"><rect width="10" height="32" style="fill:url(#xsh-hl)"/><rect x="10" width="8" height="32" style="fill:#000;opacity:0.001"/></g>
<g id="shadow-right" transform="translate(50,18)"><rect width="8" height="32" style="fill:#000;opacity:0.001"/><rect x="8" width="10" height="32" style="fill:url(#xsh-h)"/></g>
<g id="shadow-center" transform="translate(18,18)"><rect width="32" height="32" style="fill:#000;opacity:0.001"/></g>
<rect id="shadow-hint-top-margin" x="18" y="0" width="2" height="10" style="opacity:0"/>
<rect id="shadow-hint-bottom-margin" x="18" y="58" width="2" height="10" style="opacity:0"/>
<rect id="shadow-hint-left-margin" x="0" y="18" width="10" height="2" style="opacity:0"/>
<rect id="shadow-hint-right-margin" x="58" y="18" width="10" height="2" style="opacity:0"/>
<g id="topleft" transform="translate(10,10)"><path class="ColorScheme-Background" style="fill:currentColor;opacity:0.95" d="M0,8 A8,8 0 0 1 8,0 L8,8 Z"/><path class="ColorScheme-Text" style="fill:currentColor;opacity:0.08" d="M0,8 A8,8 0 0 1 8,0 V1 A7,7 0 0 0 1,8 Z"/></g>
<g id="topright" transform="translate(50,10)"><path class="ColorScheme-Background" style="fill:currentColor;opacity:0.95" d="M0,0 A8,8 0 0 1 8,8 L0,8 Z"/><path class="ColorScheme-Text" style="fill:currentColor;opacity:0.08" d="M0,0 A8,8 0 0 1 8,8 H7 A7,7 0 0 0 0,1 Z"/></g>
<g id="bottomleft" transform="translate(10,50)"><path class="ColorScheme-Background" style="fill:currentColor;opacity:0.95" d="M0,0 L8,0 L8,8 A8,8 0 0 1 0,0 Z"/><path class="ColorScheme-Text" style="fill:currentColor;opacity:0.08" d="M0,0 A8,8 0 0 0 8,8 V7 A7,7 0 0 1 1,0 Z"/></g>
<g id="bottomright" transform="translate(50,50)"><path class="ColorScheme-Background" style="fill:currentColor;opacity:0.95" d="M0,0 L8,0 A8,8 0 0 1 0,8 Z"/><path class="ColorScheme-Text" style="fill:currentColor;opacity:0.08" d="M8,0 A8,8 0 0 1 0,8 V7 A7,7 0 0 0 7,0 Z"/></g>
<g id="top" transform="translate(18,10)"><path class="ColorScheme-Background" style="fill:currentColor;opacity:0.95" d="M0,0 H32 V8 H0 Z"/><path class="ColorScheme-Text" style="fill:currentColor;opacity:0.08" d="M0,0 H32 V1 H0 Z"/></g>
<g id="bottom" transform="translate(18,50)"><path class="ColorScheme-Background" style="fill:currentColor;opacity:0.95" d="M0,0 H32 V8 H0 Z"/><path class="ColorScheme-Text" style="fill:currentColor;opacity:0.08" d="M0,7 H32 V8 H0 Z"/></g>
<g id="left" transform="translate(10,18)"><path class="ColorScheme-Background" style="fill:currentColor;opacity:0.95" d="M0,0 H8 V32 H0 Z"/><path class="ColorScheme-Text" style="fill:currentColor;opacity:0.08" d="M0,0 H1 V32 H0 Z"/></g>
<g id="right" transform="translate(50,18)"><path class="ColorScheme-Background" style="fill:currentColor;opacity:0.95" d="M0,0 H8 V32 H0 Z"/><path class="ColorScheme-Text" style="fill:currentColor;opacity:0.08" d="M7,0 H8 V32 H7 Z"/></g>
<g id="center" transform="translate(18,18)"><path class="ColorScheme-Background" style="fill:currentColor;opacity:0.95" d="M0,0 H32 V32 H0 Z"/></g>
<rect id="hint-top-margin" x="18" y="10" width="4" height="6" style="fill:#ff00ff;opacity:0"/>
<rect id="hint-bottom-margin" x="18" y="52" width="4" height="6" style="fill:#ff00ff;opacity:0"/>
<rect id="hint-left-margin" x="10" y="18" width="6" height="4" style="fill:#ff00ff;opacity:0"/>
<rect id="hint-right-margin" x="52" y="18" width="6" height="4" style="fill:#ff00ff;opacity:0"/>
<path id="mask-topleft" d="M76,18 A8,8 0 0 1 84,10 L84,18 Z"/>
<path id="mask-topright" d="M116,10 A8,8 0 0 1 124,18 L116,18 Z"/>
<path id="mask-bottomleft" d="M76,50 L84,50 L84,58 A8,8 0 0 1 76,50 Z"/>
<path id="mask-bottomright" d="M116,50 L124,50 A8,8 0 0 1 116,58 Z"/>
<rect id="mask-top" x="84" y="10" width="32" height="8"/>
<rect id="mask-bottom" x="84" y="50" width="32" height="8"/>
<rect id="mask-left" x="76" y="18" width="8" height="32"/>
<rect id="mask-right" x="116" y="18" width="8" height="32"/>
<rect id="mask-center" x="84" y="18" width="32" height="32"/>
</svg>
